<svg xmlns="http://www.w3.org/2000/svg" xml:space="preserve" id="Layer_1" x="0" y="0" style="enable-background:new 0 0 1012.9 203.7" version="1.1" viewBox="0 0 1012.9 203.7">
	<g id="Group_3" transform="translate(-2665.154 1016.318)">
		<path d="M3072.1-972.8v144.1h185.1v-33.6H3118v-49.6h116.5V-943H3118v-38.9h139.2v-33.6h-160.3l-24.8 42.7zm-360.1 61h116.5v-31.1H2712v-38.9h136.6l-18.9-33.6H2666v186.8h185.1v-33.7H2712v-49.5zm704.6 15.7-108.4-119.3h-34.4v186.8h41.4v-119.3l108.1 119.3h34.7v-186.8h-41.4v119.3zm58.1-119.3v34.1h80.7v152.6h41v-152.7h80.7v-34.1l-202.4.1z" />
		<path d="m3029.3-1015.4-67.7 116.1-65.3-116.1H2848l89.1 158.6 24.4 42.4 24.5-42.4 92.4-158.6h-49.1z" />
	</g>
</svg>
