<svg xmlns="http://www.w3.org/2000/svg" width="131" height="60" fill-rule="evenodd" clip-rule="evenodd" stroke-linejoin="round" stroke-miterlimit="1.414" viewBox="-5 -5 131 60" id="hoyts-logo" x="225">
	<path fill="none" d="M0 0h120.366v50H0z" />
	<path fill="#d30013" d="M9.453 20.029h4.276v4.134H9.453zM9.453 11.484h4.276v4.135H9.453zM9.453 28.573h4.276v4.134H9.453zM9.453 36.842h4.276v4.135H9.453zM61.324 40.977h7.409V28.828l6.008-17.344h-7.195l-2.583 10.374-2.628-10.374h-7.163l6.152 17.344v12.149zM76.428 17.548h4.846v23.429h7.125V17.548h4.844v-6.064H76.428v6.064zM105.212 24.17c-2.223-2.03-3.988-3.165-3.988-5.401v-.554c0-.71.568-1.218 1.289-1.218h.837c.722 0 1.294.508 1.294 1.218v2.64h5.985v-3.396c0-3.227-2.824-5.975-6.163-5.975h-3.678c-3.337 0-6.119 2.748-6.119 5.975v2.117c0 3.841 3.119 6.623 5.749 8.741 2.175 1.94 3.94 3.412 3.94 5.396v.818c0 .701-.558 1.209-1.268 1.209h-1.353c-.722 0-1.369-.508-1.369-1.209v-2.926h-5.699v3.56c0 3.217 2.61 5.812 5.951 5.812h4.196c3.34 0 6.098-2.595 6.098-5.812v-2.039c0-3.972-2.995-6.634-5.702-8.956zM27.978 23.888h-3.705V11.484h-6.839v29.493h6.839V29.676h3.705v11.301h7.125V11.484h-7.125v12.404zM54.769 35.165V17.459c0-3.227-2.784-5.975-6.113-5.975h-4.78c-3.328 0-5.922 2.748-5.922 5.975v17.706c0 3.217 2.594 5.812 5.922 5.812h4.78c3.329 0 6.113-2.595 6.113-5.812zm-6.84-.732c0 .699-.681 1.307-1.415 1.307h-.497c-.722 0-1.223-.608-1.223-1.307V18.215c0-.71.501-1.218 1.223-1.218h.497c.734 0 1.415.508 1.415 1.218v16.218z" />
</svg>
