<svg xmlns="http://www.w3.org/2000/svg" xml:space="preserve" style="enable-background:new 0 0 111 31" viewBox="0 0 111 31">
	<path d="M13.1.8c-.8.6-1.9 1.6-2.5 2.1l-.1.1c0 .1-1.3 3.4-1.5 3.9L.7 10.2l-.5.2.3 1.8.8-.3s5.3-2.1 6.8-2.7L.3 29.3l-.1.6v.2c0 .2.1.7.7.8.3 0 .6-.1.8-.4 0-.1 7.3-15.4 7.6-16l1-2.2 2.2-4.8h.1c2-.7 6.6-2.2 8.7-2.2-1 1.6-4.9 5.7-7.9 8.4l-.4.4c-1.5 1.4-2.6 2.5-3.1 3.3-.3.4-.4.8-.4 1v.2c0 .4.2.7.5 1 .3.2 2.8 3.5 3 3.8.2.3.8.9 1.7 1.5 1.4.8 3 1.4 4.6 1.8 2 .4 3.3.7 4.3.8 1.4.1 5.9.3 7.9.2h1l-.5-1.2-6.3-15.2-.4-.9-.7.5c-1 .8-4.5 3.2-5.7 3.9l-1.4.8c2-1.7 4-3.4 6-5.2C25 9.2 28 6.6 28.7 4.6c0-.1.1-.7.1-.7 0-.5-.2-.9-.5-1.2-.9-.9-2.8-.9-7.3.1 0 0-5.9 1.8-7.6 2.4 1-2.1 1.5-3.5 1.7-3.8l.1-.5c0-.3-.1-.5-.3-.6-.5-.4-1-.1-1.8.5" style="fill-rule:evenodd;clip-rule:evenodd;fill:#fffffe" />
	<path d="M25.1 11.6v-.1s-4.3 3.1-5.7 3.9c-1.5.9-4.5 2.6-5.4 2.7h-.1l.1-.1-.2-.2s.2-.3.5-.5l.2.2.5-.4-.2-.2.5-.5.1.1s6.3-5.4 7.2-6.2c.9-.8 4.8-3.9 5.5-6 .5-2.1-2.2-1.9-6.8-.9-3 .9-6 1.8-9 2.8 1.1-2.5 2.1-4.7 2.3-5.2.2-.6-.1-.5-1.1.2s-2.4 2.1-2.4 2.1l-1.5 4c-3.2 1.3-8.4 3.3-8.5 3.4l-.1.5s5.1-2.1 8.3-3.3L1 29.5s-.1.3-.1.5.1.4.1.2c.1-.2 7.3-15.4 7.6-16 .1-.3 1.8-3.9 3.3-7.3 2-.7 7.4-2.5 9.6-2.4 0 0 .9.1.3 1-1.1 1.6-5.1 5.8-8.1 8.5l-.4.4.2.2-.5.5-.3-.3-.4.4.3.3-.5.5-.1-.2-.4.4.3.3c-.2.2-.3.3-.4.5l-.3-.3c-.1.1-.2.3-.4.4l.3.3c-.1.1-.2.3-.3.4l-.3-.3c-.1.1-.1.2-.2.3l.3.3c-.1.2-.2.4-.2.6-.1-.2-.3-.4-.3-.4-.1.1 0 .4.2.5.4.3 1 .4 2.4 0 0 0 .2-.1.3.1 0 0 .2.3.3.4 0 .1.1.2-.1.2-.1 0-1.1.2-1.9.1-.3-.1-.5-.2-.7-.3l.3.3c.2.1.4.3.9.4.5.1 1.6 0 1.7 0 .1 0 .2 0 .3.1.1.2 2 2.9 2.2 3.2.1.2.2.4-.1.3-.4-.1-.7-.1-1.5-.6-.8-.4-1.2-.7-1.3-.8 0 0 .3.4.5.5.1.1 1.3 1 2.8 1.4 0 0 .3.1.4.2.1.1.3.5.3.5s.1.2-.1.1c-.3-.1-2.3-.9-3-1.8 0 0-.2-.1-.1 0 0 0 .5.7 1.5 1.3 1.4.8 2.8 1.4 4.4 1.7 1.8.4 3.1.7 4.3.8 1.3.1 5.8.3 7.8.2-.5-.3-6.7-15.3-6.8-15.5zm.4 3.5c.3 0 .4.4.4.4l2.8 6.6c0 .1.3.5.2.7-.1.3-.2.3-.5.3-.3.1-3.1.5-3.4.5-.3 0-.9.1-1.1 0-.2-.1-.5-.6-.5-.6l-2.5-5s-.1-.2-.2-.5c0-.3.3-.3.3-.3s3.4-1.8 3.6-1.9c.2 0 .6-.2.9-.2zm-2.6-1.3c.4-.3.8-.5 1.1-.7 0 0 .1-.1.3-.1.2 0 .2.1.3.2.1.1.3.5.3.5s.1.1 0 .3c0 0 0 .2-.2.3-.4.3-.8.6-1.2.8 0 0-.1.1-.3.1-.1 0-.1-.1-.2-.1 0 0-.3-.4-.3-.5 0-.1-.1-.1-.1-.3.1-.4.3-.5.3-.5zm-2.6 1.8c0-.1.3-.3.3-.3.1 0 .4-.3.6-.4 0 0 .2-.1.3-.1.2 0 .3.2.3.2l.3.4s.1.2.1.3c0 .1-.1.2-.2.2-.2.2-.5.3-.8.5h-.3c-.1 0-.3-.2-.3-.2l-.2-.4c-.1.1-.2-.1-.1-.2zm-1.9.9.5-.3c.1 0 .2-.1.3-.1.1 0 .3.1.3.2l.2.3s.1.2.1.3c0 .1-.1.2-.1.2s-.5.2-.6.3c-.1.1-.2.1-.3.1-.1 0-.2-.1-.2-.1s-.2-.3-.3-.3c0-.1-.1-.1-.1-.3 0-.2.2-.3.2-.3zm-1.8 1c0-.1.3-.2.5-.3.1-.1.2-.1.4-.1.1 0 .3.3.3.3 0 .1.2.3.2.4 0 .1-.2.2-.2.2-.1.1-.5.2-.6.2-.1 0-.2-.1-.2-.1l-.3-.4s-.1-.1-.1-.2zm-1.2.5.3-.1.1-.1c.1 0 .2 0 .3.1 0 0 .2.3.3.5.1.2 0 .3 0 .3s-.2.1-.4.1c-.2.1-.3-.1-.3-.1s-.2-.3-.3-.4c-.2-.3 0-.3 0-.3zm-.9.3h.3c.1 0 .1.1.1.1s.3.3.3.4v.2s-.3.1-.4.1c-.1 0-.2-.1-.2-.1l-.2-.3s-.1-.1-.1-.2c-.1-.1.1-.1.2-.2zm2.7-6.4 1 1.1-.3.3-1-1.1.3-.3zm-1.3 1.2 1.1 1.2-.4.4-1.1-1.2.4-.4zm-1.1 1.1 1.1 1.2-.5.4-1.1-1.2c.1-.1.5-.4.5-.4zm-1 .8 1.1 1.2-.5.5-1.1-1.2c.3-.2.4-.4.5-.5zm-2.9 3.9c-.1-.1-.2-.3-.1-.6l.5.5c-.2.1-.3.1-.4.1zm.8 0-.8-.9c.1-.2.2-.3.3-.4l1 1.1c-.1.1-.3.1-.5.2zm1.1-.4-1.2-1.3.4-.4 1.1 1.3s-.2.2-.3.4zm-.3-2.2.5-.5 1.1 1.2-.5.5-1.1-1.2zm1.5 3c-.2 0-.3-.1-.3-.1l-.3-.3c-.2-.2 0-.2 0-.2h.2c.2 0 .3.1.3.1s.2.3.3.4c0 0 0 .1-.2.1zm2.7 4.3c-.3-.1-.4-.2-.5-.4-.1-.2-2-3.2-2-3.2s-.2-.2.1-.3c.3-.1 1.4-.3 1.4-.3s.3-.2.6.6l2 3.3s.4.5.3.6c-.2 0-1.6-.2-1.9-.3zm1.1 1.4c-.1 0-.2 0-.4-.1s-.2-.2-.2-.2-.2-.3-.3-.5.2-.1.2-.1.1 0 .2.1c.1 0 .1.1.1.1s.2.4.2.5c.2.1.3.2.2.2zm1.2.3h-.2s-.2 0-.3-.1c-.1 0-.2-.3-.2-.3l-.3-.3s-.1-.1-.1-.2.2 0 .2 0 .1 0 .3.1c.1 0 .2.1.3.2 0 0 .1.3.2.4.1 0 .2.2.1.2zm1.5.3c-.1.1-.2 0-.2 0s-.1 0-.4-.1c-.2 0-.3-.3-.3-.3l-.3-.6c-.1-.2.2-.1.2-.1h.4c.1 0 .1 0 .2.1.1 0 .1.1.1.2 0 0 .2.3.2.4 0 .1.1.3.1.4zm1.7.2c-.1.1-.2.1-.2.1s-.1 0-.5-.1c-.3 0-.5-.4-.5-.4l-.1-.4c0-.1-.1-.2 0-.3 0-.1.4 0 .5 0 .1 0 .3 0 .4.1.2.1.3.4.3.5 0 .2.2.4.1.5zm.1-1.8h-2.4c-.5 0-.7-.4-.7-.4l-2.3-4c-.3-.4.1-.5.1-.5s.8-.3 1.1-.4c.3-.1 1.2-.5 1.5-.5.2 0 .3.3.3.3l2.6 5c.3.6-.2.5-.2.5zm2 2c-.1.1-.2.1-.2.1h-.4c-.2 0-.3 0-.5-.1l-.2-.2-.3-.8v-.2c0-.1.1-.1.1-.1h.4c.1 0 .4 0 .6.1.2.2.3.5.3.6.2.3.3.5.2.6zm2.2.2h-.7s-.3 0-.5-.2c-.2-.3-.4-.7-.4-.8v-.3c.1-.1.1-.1.2-.1h.8s.3 0 .3.1l.2.2s.2.4.3.7c.2.2.2.4-.2.4zm3.1-.1s-.8.1-1 .1c-.2 0-.4 0-.5-.1-.1-.2-.1-.3-.1-.3l-.3-.9s-.1-.1 0-.3c.1-.1.3-.2.3-.2s.8-.1 1.1-.1c.2 0 .4 0 .5.1.1.1.2.3.2.3s.1.5.2.6c0 .1.2.4 0 .6-.2.2-.4.2-.4.2z" style="fill-rule:evenodd;clip-rule:evenodd;fill:#1a1919" />
	<path d="M85.7 3.1h-3.1v11.2h3.1V3.1zm-47 7.8H40l2.2 3.4h3.6l-2.7-3.9c1.4-.6 2.3-1.7 2.3-3.4 0-1.1-.3-2-1-2.6-.7-.8-1.9-1.2-3.6-1.2h-5.3v11.2h3.1v-3.5zm0-5.1h2c1 0 1.7.4 1.7 1.3 0 .8-.6 1.3-1.7 1.3h-2V5.8zm2.5 19.9c-1.6 0-2.7-1.3-2.7-3 0-1.6 1.1-2.9 2.7-2.9 1.1 0 1.8.5 2.4 1.3l2.3-1.8c-1-1.4-2.5-2.3-4.7-2.3-3.4 0-5.9 2.5-5.9 5.8s2.6 5.8 5.7 5.8c2.5 0 3.9-1.1 4.9-2.5l-2.3-1.7c-.6.8-1.3 1.3-2.4 1.3zm19.6-13.4h4.3l.8 2h3.3L64.5 3h-3l-4.7 11.2H60l.8-1.9zM63 6.7l1.2 3.2h-2.5L63 6.7zm-6.9 4.9h-6V9.9h5.3V7.4h-5.3V5.8H56V3.1h-9v11.2h9v-2.7zm49.8 2.9c1.8 0 3.5-.6 4.8-1.7v-5h-5.1V10h2.2v1.4c-.5.3-1 .5-1.8.5-1.8 0-3-1.3-3-3.1 0-1.7 1.2-3.1 2.8-3.1 1.1 0 1.9.4 2.7 1.1l1.8-2.2c-1.2-1-2.6-1.6-4.5-1.6-3.5 0-6 2.5-6 5.8s2.6 5.7 6.1 5.7zm.8 6.9c-1.5-.4-1.9-.6-1.9-1.1 0-.4.4-.7 1.1-.7 1 0 2.1.4 3.1 1.1l1.5-2.2c-1.2-1-2.7-1.5-4.6-1.5-2.7 0-4.3 1.5-4.3 3.6 0 2.3 1.8 3 4.2 3.5 1.5.3 1.9.6 1.9 1.1 0 .5-.4.8-1.3.8-1.3 0-2.5-.5-3.6-1.3l-1.7 2.1c1.4 1.2 3.2 1.8 5.2 1.8 2.7 0 4.5-1.4 4.5-3.6s-1.5-3-4.1-3.6zM90.8 8.2l4.8 6.1h2.7V3.1h-3.1V9l-4.6-5.9h-2.9v11.2h3.1V8.2zM47.4 28.3h3.1V17.2h-3.1v11.1zm34.2-6.8-2.7-4.3h-3.3v11.2h3V22l2.8 4.3h.1l2.8-4.4v6.4h3.1V17.2h-3.3l-2.5 4.3zm11.7-4.4-4.7 11.2h3.2l.8-2h4.3l.8 2h3.3l-4.7-11.2h-3zm.2 6.8 1.3-3.2 1.2 3.2h-2.5zM60 23.1l-4.6-5.9h-2.9v11.2h3.1v-6.1l4.8 6.1h2.7V17.2H60v5.9zM80.9 8.7c0-3.2-2.3-5.5-6.3-5.5h-4.3v11.2h4.2c4.1-.1 6.4-2.5 6.4-5.7zm-3.2 0c0 1.8-1.2 2.8-3.1 2.8h-1.3V5.9h1.3c1.9 0 3.1 1 3.1 2.8zm-9.6 15.2h5.4v-2.4h-5.4v-1.7H74v-2.6h-9v11.2h9v-2.6h-6v-1.9z" style="fill:#1a1919" />
</svg>
